<svg xmlns="http://www.w3.org/2000/svg" viewBox="0 0 512 512" width="512" height="512">
  <defs>
    <linearGradient id="bg" x1="0" y1="0" x2="1" y2="1">
      <stop offset="0%" stop-color="#FF7043"/>
      <stop offset="100%" stop-color="#C62828"/>
    </linearGradient>
    <linearGradient id="body" x1="0" y1="0" x2="0" y2="1">
      <stop offset="0%" stop-color="#FFD54F"/>
      <stop offset="100%" stop-color="#FF9800"/>
    </linearGradient>
  </defs>
  <!-- Full-bleed background (safe area inside center 80%) -->
  <rect x="0" y="0" width="512" height="512" fill="url(#bg)"/>
  <!-- Keep the car within the inner 80% safe zone (51 - 461 ≈ inner) -->
  <g transform="translate(256 280) scale(0.72)">
    <ellipse cx="0" cy="60" rx="180" ry="22" fill="rgba(0,0,0,0.35)"/>
    <path d="M -160,-8 Q -140,-60 -65,-70 L 65,-70 Q 140,-60 160,-8 L 160,42 Q 160,58 144,58 L -144,58 Q -160,58 -160,42 Z"
          fill="url(#body)" stroke="#311B92" stroke-width="8"/>
    <path d="M -90,-58 Q -64,-78 0,-78 Q 64,-78 90,-58 L 72,-12 L -72,-12 Z" fill="#1565C0" opacity="0.88"/>
    <circle cx="-92" cy="46" r="30" fill="#212121"/>
    <circle cx="-92" cy="46" r="13" fill="#FAFAFA"/>
    <circle cx="92"  cy="46" r="30" fill="#212121"/>
    <circle cx="92"  cy="46" r="13" fill="#FAFAFA"/>
    <circle cx="0" cy="-22" r="24" fill="#fff" stroke="#311B92" stroke-width="4"/>
    <text x="0" y="-10" text-anchor="middle" font-family="Arial Black, sans-serif" font-size="34" font-weight="900" fill="#C62828">1</text>
  </g>
  <text x="256" y="430" text-anchor="middle" font-family="Arial Black, sans-serif" font-size="44" font-weight="900" fill="#fff" stroke="#311B92" stroke-width="2.5">GYRO RUSH</text>
</svg>
